<svg xmlns="http://www.w3.org/2000/svg" data-name="Layer 364" viewBox="0 0 46 46"><path fill="#ffb703" d="M46.03 33.94A12.06 12.06 0 0 1 33.97 46h-4.74a12 12 0 0 1-8.52-3.53 12.05 12.05 0 0 1 8.53-20.58h4.74a12.07 12.07 0 0 1 12.05 12.05Z"/><circle cx="31.57" cy="7.72" r="7.72" fill="#d70026"/><path fill="#f48c06" d="M20.68 42.47A9.54 9.54 0 0 1 13.27 46H9.53a9.54 9.54 0 0 1 0-19.07h3.74a9.46 9.46 0 0 1 5.18 1.53 12.07 12.07 0 0 0 2.22 14Z"/><circle cx="11.41" cy="15.74" r="6.1" fill="#d70026"/></svg>